# AST/ASF file generated using VICON BodyLanguage
# -----------------------------------------------
:version 1.10
:name VICON
:units
  mass 1.0
  length 0.45
  angle deg
:documentation
   .ast/.asf automatically generated from VICON data using
   VICON BodyBuilder and BodyLanguage model FoxedUp or BRILLIANT.MOD
:root
   order TX TY TZ RX RY RZ
   axis XYZ
   position 0 0 0  
   orientation 0 0 0 
:bonedata
  begin
     id 1 
     name lhipjoint
     direction 0.70531 -0.63749 0.310071 
     length 2.59589 
     axis 0 0 0  XYZ
  end
  begin
     id 2 
     name lfemur
     direction 0.34202 -0.939693 0  
     length 6.19797  
     axis 0 0 20  XYZ
    dof rx ry rz
    limits (-160.0 20.0)
           (-70.0 70.0)
           (-60.0 70.0)
  end
  begin
     id 3 
     name ltibia
     direction 0.34202 -0.939693 0   
     length 7.80054   
     axis 0 0 20   XYZ
    dof rx
    limits (-10.0 170.0)
  end
  begin
     id 4 
     name lfoot
     direction 0.0828572 -0.227648 0.970212   
     length 1.88124   
     axis -90 7.62852e-016 20   XYZ
    dof rx rz
    limits (-45.0 90.0)
           (-70.0 20.0)
  end
  begin
     id 5 
     name ltoes
     direction 1.53544e-011 -4.219e-011 1   
     length 0.948015   
     axis -90 7.62852e-016 20   XYZ
    dof rx
    limits (-90.0 20.0)
  end
  begin
     id 6 
     name rhipjoint
     direction -0.730062 -0.614543 0.29891   
     length 2.69282  
     axis 0 0 0  XYZ 
  end
  begin
     id 7 
     name rfemur
     direction -0.34202 -0.939693 0   
     length 5.86298   
     axis 0 0 -20   XYZ
    dof rx ry rz
    limits (-160.0 20.0)
           (-70.0 70.0)
           (-70.0 60.0)
  end
  begin
     id 8 
     name rtibia
     direction -0.34202 -0.939693 0   
     length 7.72374   
     axis 0 0 -20   XYZ
    dof rx
    limits (-10.0 170.0)
 end
 begin
     id 9 
     name rfoot
     direction -0.0967421 -0.265797 0.959163   
     length 2.02368  
     axis -90 -7.62852e-016 -20   XYZ
    dof rx rz
    limits (-45.0 90.0)
           (-20.0 70.0)
  end
  begin
     id 10 
     name rtoes
     direction -1.53524e-011 -4.21768e-011 1   
     length 1.01373   
     axis -90 -7.62852e-016 -20   XYZ
    dof rx
    limits (-90.0 20.0)
  end
  begin
     id 11 
     name lowerback
     direction 0.00561702 0.992801 -0.119643   
     length 2.02816   
     axis 0 0 0   XYZ
    dof rx ry rz
    limits (-20.0 45.0)
           (-30.0 30.0)
           (-30.0 30.0)
  end
  begin
     id 12 
     name upperback
     direction 0.00155544 0.995735 -0.0922509   
     length 2.02265   
     axis 0 0 0   XYZ
    dof rx ry rz
    limits (-20.0 45.0)
           (-30.0 30.0)
           (-30.0 30.0)
  end
  begin
     id 13 
     name thorax
     direction -0.000937535 0.999317 -0.0369292   
     length 2.04823   
     axis 0 0 0   XYZ
    dof rx ry rz
    limits (-20.0 45.0)
           (-30.0 30.0)
           (-30.0 30.0)
  end
  begin
     id 14 
     name lowerneck
     direction -0.0813151 0.981659 0.172436   
     length 1.8875   
     axis 0 0 0   XYZ
    dof rx ry rz
    limits (-20.0 45.0)
           (-30.0 30.0)
           (-30.0 30.0)
  end
  begin
     id 15 
     name upperneck
     direction 0.119359 0.955672 -0.269157   
     length 1.92801   
     axis 0 0 0   XYZ
    dof rx ry rz
    limits (-20.0 45.0)
           (-30.0 30.0)
           (-30.0 30.0)
  end
  begin
     id 16
     name head
     direction 0.0421007 0.992672 -0.113268  
     length 1.95809  
     axis 0 0 0   XYZ
    dof rx ry rz
    limits (-20.0 45.0)
           (-30.0 30.0)
           (-30.0 30.0)
  end
  begin
     id 17 
     name lclavicle
     direction 0.944093 0.32865 -0.0260136  
     length 3.84992  
     axis 0 0 0   XYZ
    dof ry rz
    limits (-20.0 10.0)
           (0.0 20.0)
  end
  begin
     id 18 
     name lhumerus
     direction 1 -4.48979e-011 -1.27712e-029   
     length 5.53593   
     axis 180 -30 -90   XYZ
    dof rx ry rz
    limits (-60.0 90.0)
           (-90.0 90.0)
           (-90.0 90.0)
  end
  begin
     id 19
     name lradius
     direction 1 -4.48966e-011 1.00051e-028   
     length 3.13345   
     axis 180 -30 -90   XYZ
    dof rx
    limits (-10.0 170.0)
  end
  begin
     id 20
     name lwrist
     direction 1 -4.4896e-011 2.56952e-028   
     length 1.56673   
     axis -5.12785e-016 90 90   XYZ
    dof ry
    limits (-180.0 0.0)
 end
  begin
     id 21 
     name lhand
     direction 1 -4.48934e-011 5.13905e-028   
     length 0.713374   
     axis -3.27915e-016 90 90   XYZ
    dof rx rz
    limits (-90.0 90.0)
           (-45.0 45.0)
  end
  begin
     id 22 
     name lfingers
     direction 1 -4.48973e-011 1.02781e-027   
     length 0.575141   
     axis -6.5583e-016 90 90   XYZ
    dof rx
    limits (0.0 90.0)
  end
  begin
     id 23
     name lthumb
     direction 0.707107 -6.34883e-011 0.707107   
     length 0.82579   
     axis -90 45 2.85299e-015   XYZ
    dof rx rz
    limits (-45.0 45.0)
           (-45.0 45.0)
  end
  begin
     id 24 
     name rclavicle
     direction -0.936895 0.34884 0.0232243   
     length 3.53304  
     axis 0 0 0   XYZ 
    dof ry rz
    limits (-10.0 20.0)
           (-20.0 0.0)
  end
  begin
     id 25 
     name rhumerus
     direction -1 -4.48965e-011 1.05514e-027  
     length 5.4685   
     axis 180 30 90   XYZ
    dof rx ry rz
    limits (-90.0 60.0)
           (-90.0 90.0)
           (-90.0 90.0)
  end
  begin
     id 26 
     name rradius
     direction -1 -4.48964e-011 -1.1079e-027   
     length 3.22411   
     axis 180 30 90   XYZ
    dof rx
    limits (-10.0 170.0)
  end
  begin
     id 27 
     name rwrist
     direction -1 -4.48973e-011 2.56952e-028   
     length 1.61206   
     axis -5.12785e-016 -90 -90   XYZ
    dof ry
    limits (-180.0 0.0)
  end
  begin
     id 28
     name rhand
     direction -1 -4.48957e-011 5.13905e-028   
     length 0.74528   
     axis -3.27915e-016 -90 -90   XYZ
    dof rx rz
    limits (-90.0 90.0)
           (-45.0 45.0)
  end
  begin
     id 29
     name rfingers
     direction -1 -4.4901e-011 1.02781e-027   
     length 0.600864   
     axis -6.5583e-016 -90 -90   XYZ
    dof rx
    limits (0.0 90.0)
  end
  begin
     id 30
     name rthumb
     direction -0.707107 -6.34972e-011 0.707107   
     length 0.862724   
     axis -90 -45 -2.85299e-015   XYZ
    dof rx rz
    limits (-45.0 45.0)
           (-45.0 45.0)
  end
:hierarchy
  begin
    root lhipjoint rhipjoint lowerback
    lhipjoint lfemur
    lfemur ltibia
    ltibia lfoot
    lfoot ltoes
    rhipjoint rfemur
    rfemur rtibia
    rtibia rfoot
    rfoot rtoes
    lowerback upperback
    upperback thorax
    thorax lowerneck lclavicle rclavicle
    lowerneck upperneck
    upperneck head
    lclavicle lhumerus
    lhumerus lradius
    lradius lwrist
    lwrist lhand lthumb
    lhand lfingers
    rclavicle rhumerus
    rhumerus rradius
    rradius rwrist
    rwrist rhand rthumb
    rhand rfingers
  end

#!OML:ASF G:\Work\Work\Patient Classification 1\Liu\Session 1\Liu.ASF
:FULLY-SPECIFIED
:DEGREES
145
root 9.87338 16.6323 -21.727 3.13593 -1.81556 -2.29653
lowerback 2.4159 0.252013 3.06702
upperback 1.12334 0.40335 0.368211
thorax -0.183746 0.210667 -1.35169
lowerneck -20.4493 -5.49031 -12.4902
upperneck 26.3846 -5.82853 7.46794
head 12.8232 -2.87319 3.98882
rclavicle 3.13396e-015 -2.08724e-015
rhumerus -40.5916 17.3319 -88.921
rradius 46.3372
rwrist -11.7361
rhand -15.5134 16.9053
rfingers 7.12502
rthumb 10.6695 -12.8038
lclavicle 3.13396e-015 -2.08724e-015
lhumerus -39.0592 -9.8012 89.3794
lradius 30.2358
lwrist 1.19313
lhand -12.8168 31.5619
lfingers 7.12502
lthumb 13.2698 61.1194
rfemur -7.57996 4.36222 28.3789
rtibia 26.5517
rfoot -20.5625 -2.44357
rtoes -23.4742
lfemur -41.693 4.69178 -21.1791
ltibia 69.6475
lfoot -15.6088 12.0096
ltoes -8.69021
146
root 9.86981 16.6226 -21.5736 3.22157 -2.05139 -2.4936
lowerback 2.42904 0.404709 3.26512
upperback 1.21494 0.609528 0.384475
thorax -0.0855238 0.316793 -1.45056
lowerneck -20.7762 -5.50427 -12.7582
upperneck 26.4442 -5.85043 7.91429
head 12.9423 -2.84612 4.20779
rclavicle 9.65969e-016 -4.34841e-015
rhumerus -40.3735 17.5954 -88.9119
rradius 46.7191
rwrist -11.3937
rhand -15.5358 17.4935
rfingers 7.12502
rthumb 10.6479 -12.2167
lclavicle 9.65969e-016 -4.34841e-015
lhumerus -39.2324 -10.1608 89.4668
lradius 30.4041
lwrist 1.45075
lhand -12.8624 31.5388
lfingers 7.12502
lthumb 13.2259 61.0993
rfemur -6.69765 4.52854 28.6267
rtibia 25.8368
rfoot -20.5963 -2.3513
rtoes -22.9421
lfemur -42.3164 4.32698 -20.8517
ltibia 67.4957
lfoot -15.8274 11.1038
ltoes -7.59628
147
root 9.86825 16.6166 -21.4184 3.32251 -2.16013 -2.49614
lowerback 2.57877 0.465895 3.23661
upperback 1.06068 0.699835 0.393848
thorax -0.323638 0.356481 -1.42965
lowerneck -20.4758 -5.44641 -12.703
upperneck 26.357 -5.79378 7.82022
head 12.8328 -2.83249 4.17066
rclavicle 1.88845e-015 -1.48095e-014
rhumerus -40.4459 17.8489 -88.9182
rradius 47.1675
rwrist -11.5395
rhand -15.5941 16.9707
rfingers 7.12502
rthumb 10.5917 -12.7424
lclavicle 1.88845e-015 -1.48095e-014
lhumerus -39.8096 -10.1317 89.53
lradius 30.5638
lwrist 1.49671
lhand -12.9546 31.4405
lfingers 7.12502
lthumb 13.137 61.0067
rfemur -5.7179 4.61382 28.6623
rtibia 24.9759
rfoot -20.6522 -2.28917
rtoes -22.3038
lfemur -42.7948 3.78862 -20.7216
ltibia 65.0471
lfoot -16.6211 9.13946
ltoes -6.5124
148
root 9.86364 16.6193 -21.2605 3.33722 -2.23726 -2.49625
lowerback 2.69248 0.47769 3.16591
upperback 1.03792 0.718946 0.42264
thorax -0.411017 0.364268 -1.36242
lowerneck -20.4209 -5.30845 -12.6702
upperneck 26.281 -5.60075 7.79452
head 12.7636 -2.74709 4.18775
rclavicle 2.25108e-014 -6.65929e-015
rhumerus -40.2964 18.1617 -88.8249
rradius 47.7842
rwrist -11.9398
rhand -15.7211 17.2969
rfingers 7.12502
rthumb 10.4692 -12.4224
lclavicle 2.25108e-014 -6.65929e-015
lhumerus -40.1232 -9.82201 89.4569
lradius 30.5718
lwrist 1.24425
lhand -13.0403 31.5411
lfingers 7.12502
lthumb 13.0543 61.1126
rfemur -4.55058 4.77734 28.7356
rtibia 23.9963
rfoot -20.6377 -2.41964
rtoes -22.128
lfemur -43.0407 3.24995 -20.5485
ltibia 62.325
lfoot -17.4813 6.39391
ltoes -6.82979
149
root 9.86057 16.6234 -21.1031 3.34038 -2.31498 -2.76692
lowerback 2.70141 0.52818 3.48273
upperback 1.17329 0.79143 0.453445
thorax -0.269533 0.404861 -1.50939
lowerneck -20.7989 -5.25276 -12.5104
upperneck 26.285 -5.4988 7.71436
head 12.8205 -2.68842 4.14484
rclavicle 6.8736e-015 -7.50412e-015
rhumerus -39.9833 18.3962 -88.7218
rradius 48.3642
rwrist -11.8629
rhand -15.6996 17.6446
rfingers 7.12502
rthumb 10.4899 -12.0737
lclavicle 6.8736e-015 -7.50412e-015
lhumerus -40.1471 -9.80067 89.358
lradius 30.5516
lwrist 1.11147
lhand -12.9582 31.7224
lfingers 7.12502
lthumb 13.1335 61.2888
rfemur -3.33918 4.8088 29.094
rtibia 22.9387
rfoot -20.4446 -2.60672
rtoes -22.8466
lfemur -43.2358 2.79496 -20.0743
ltibia 59.3841
lfoot -16.7369 8.05617
ltoes -13.4383
150
root 9.86363 16.6272 -20.9372 3.40264 -2.38643 -3.06861
lowerback 2.54035 0.616334 3.96253
upperback 1.33586 0.908322 0.432289
thorax 0.0021183 0.471988 -1.79924
lowerneck -21.3174 -5.31267 -12.1195
upperneck 26.3524 -5.54656 7.35748
head 12.9336 -2.70685 3.92624
rclavicle -4.78326e-015 -1.44616e-014
rhumerus -39.5996 18.4811 -88.6267
rradius 48.7635
rwrist -11.7001
rhand -14.9324 15.9015
rfingers 7.12502
rthumb 11.2299 -13.7779
lclavicle -4.78326e-015 -1.44616e-014
lhumerus -39.9919 -9.97617 89.2615
lradius 30.3467
lwrist 1.08094
lhand -12.9095 31.3975
lfingers 7.12502
lthumb 13.1805 60.9609
rfemur -2.06473 4.57388 29.4126
rtibia 21.7278
rfoot -20.0757 -2.57687
rtoes -23.3747
lfemur -43.2912 2.26444 -19.5248
ltibia 56.3212
lfoot -16.002 8.62627
ltoes -16.4424
